# xmcd
#
# Track frame offsets:
#	150
#	19377
#	35683
#	50813
#	65104
#	81345
#	98460
#	116025
#	131929
#	151725
#	170014
#	184049
#	198463
#	214487
#	230324
#	245895
#	260470
#	276619
#	294555
#	309657
#
# Disc length: 4329 seconds
#
# Revision: 0
# Processed by: cddbd v1.5.2PL0 Copyright (c) Steve Scherf et al.
# Submitted via: audiograbber 1.83.01
#
DISCID=4110e714
DTITLE=Various Artist - Latino dance party 2007 CD2
DYEAR=2007
DGENRE=Dance
TTITLE0=Aventura - Los Infieles (Radio Version)
TTITLE1=Impakto latino - Toma
TTITLE2=Columbian roots - Beautiful Liar
TTITLE3=Rashni - Baboushka (Radio Mix)
TTITLE4=Ragga 2 sunshine - Jambo Jambo Jambo (Ligi Digi Radio Edit)
TTITLE5=Disco Deejays - Upside Down (Radio Mix)
TTITLE6=Enur ft Natasha - Calabria 2007 (Radio Mix)
TTITLE7=Gibson Brothers - Mambolé (Album Version)
TTITLE8=Two man sound - Disco Samba
TTITLE9=Gloria Gaynor - I Am What I Am (Remix 2006)
TTITLE10=James Lloyd - Keep On Smiling
TTITLE11=Altar ft Jeanie Tracy - Party Peolpe (Radio Mix)
TTITLE12=Carnival - Not Over Yet (Antillas Steel Drum Edit)
TTITLE13=Juanjo - El Sol De Tu Mirada
TTITLE14=Den Harrow - Push Push (Captain Kook Remix)
TTITLE15=Dexter connection ft Miss T - So Magic (Radio Edit)
TTITLE16=Typically tropical - Barbados
TTITLE17=Ritmo Ritmo - Ritmo Ritmo (Radio Version)
TTITLE18=Tony T. - We Love To Love 2007 (Bounce Radio Mix)
TTITLE19=Dan Lacksman - Flamenco Moog
EXTD=
EXTT0=
EXTT1=
EXTT2=
EXTT3=
EXTT4=
EXTT5=
EXTT6=
EXTT7=
EXTT8=
EXTT9=
EXTT10=
EXTT11=
EXTT12=
EXTT13=
EXTT14=
EXTT15=
EXTT16=
EXTT17=
EXTT18=
EXTT19=
PLAYORDER=
